<?xml version="1.0" encoding="UTF-8"?>
<svg xmlns="http://www.w3.org/2000/svg" version="1.1" viewBox="0 0 145 145">
  <!-- Generator: Adobe Illustrator 29.5.1, SVG Export Plug-In . SVG Version: 2.1.0 Build 141)  -->
  <g id="Layer_2">
    <rect width="145" height="145" rx="7.1" ry="7.1" fill="#fff"/>
  </g>
  <g id="a">
    <path d="M8.8,46.9c4.9-.7,11.8-.1,17-.3,2.2,0,3.5.1,4.2.5.7.4.7,1.3.7,2.2,0,12,0,74.9,0,85.2,0,1.4-.4,1.9-2.8,2-1.3,0-3.1,0-5.3,0-3.5,0-7.8,0-10.4,0-2-.2-4.6.3-4.5-2,0-10.3,0-51.8,0-68.3,0-8.3,0-14.8,0-17.5,0-.8.1-1.5,1-1.8h0Z" fill="#152850" stroke="#000b15" stroke-miterlimit="10"/>
    <path d="M115.2,46.9c4.9-.7,11.9-.1,17.1-.3,2.2,0,3.6.1,4.2.5.8.4.7,1.3.7,2.2,0,12.1,0,75.5,0,85.4,0,1.3-.5,1.8-2.9,1.9-1.3,0-3.1,0-5.2,0-3.6,0-7.8,0-10.5,0-2-.2-4.6.3-4.5-2,0-10.3,0-51.8,0-68.3,0-8.3,0-14.8,0-17.5,0-.8.1-1.5,1-1.8h0Z" fill="#152850" stroke="#000b15" stroke-miterlimit="10"/>
    <path d="M16.4,9.7c5.2-1.7,11.1.7,13.4,5.4,1.4,3.3,0,6.8,1.7,9.8,8.2,8.4,33.8,33.8,36.4,36.5,2,.3,7.2,0,8.7,0,.4,0,.4,0,.6-.1,2.1-2.2,25.4-25.3,31.9-31.9,2.4-2.4,4.1-4.1,4.4-4.5.7-3.1.8-6.6,1.7-9.4,1.7-6,9.4-8.1,14.7-5.9,14,5.9,3.9,28.4-9.6,21.3-.9-.6-1.6,0-2.3.6-11.5,11.4-23.5,22.1-34.7,33.7-.3.5-.3,1.1-.3,1.7.2,4.6,1.3,9.1-.7,12.6-2,3.3-6.4,5.4-10.3,5.4-6.8,0-11.4-6.6-10.9-13.1,0-1.8.8-3.7,1.1-5.4-1.5-1.5-24.4-24.4-33-33l-3.1-3.1c-.2-.2-.3,0-1,.4-2.6,1.5-6.8,2-9.7.6-8.9-4-8.8-18.4.7-21.9h.2Z" fill="#152850" stroke="#000b15" stroke-miterlimit="10"/>
    <path d="M45.2,24.8" fill="#fff" stroke="#000b15" stroke-miterlimit="10"/>
    <path d="M61.4,92c3.4-1,10.9-.3,15.1-.5,2.1,0,3.8,0,4.8.2.7.1,1.2.4,1.5.8,1.1,8.6.1,32.9.4,40.9,0,2.2-.6,2.9-3.7,3-3.6,0-9.6,0-13.2,0-2.5-.2-5.1.5-5.7-1.9-.3-6.3,0-20.7-.1-31.9,0-4,0-7.2,0-8.9,0-.7.2-1.4.8-1.8h0Z" fill="#152850" stroke="#000b15" stroke-miterlimit="10"/>
  </g>
</svg>