<?xml version="1.0" encoding="UTF-8"?>
<svg id="a" xmlns="http://www.w3.org/2000/svg" version="1.1"
     viewBox="0 0 131.8 129.1">
  <rect x="1.1" y="38.6" width="23" height="90" fill="#152850"
        stroke="#000b15" stroke-miterlimit="10"/>
  <rect x="107.5" y="38.6" width="23.1" height="90" fill="#152850"
        stroke="#000b15" stroke-miterlimit="10"/>
  <path d="M9.7,1.8c4.3-1.5,8.6,0,11.2,2.3,5,4.3,1.7,8.8,4,13l36.5,36.5h9.1l36.5-36.5
           c.4-2.9.7-5.5,1.2-7.8.3-1.4.7-2.6,1.5-3.9,1.2-1.7,2.7-2.6,3.5-3,4-2.2,8.1-1.1,8.9-.9,
           1,.3,3.2.9,5.1,2.9,3.6,3.7,2.9,9,2.8,9.6-.8,5.1-5.1,10.2-10.6,10.6-3.1.2-5.6-1.2-6.7-2
           -12.1,11.7-24.2,23.3-36.3,35,0,7.1,3,14-4.8,18.1-11.1,6-20.7-5.7-15.8-16.8L19.5,22.6
           c-.7.5-4.7,3-9.3,1.7-5.2-1.5-8.3-7.1-7.9-12.2.3-4,2.7-8.7,7.4-10.3Z"
        fill="#152850" stroke="#000b15" stroke-miterlimit="10"/>
  <path d="M38.6,16.9" fill="#152850" stroke="#000b15" stroke-miterlimit="10"/>
  <rect x="53.8" y="83.6" width="22.7" height="45" fill="#152850"
        stroke="#000b15" stroke-miterlimit="10"/>
</svg>